<?xml version="1.0" encoding="utf-8"?>
<!-- Generator: Adobe Illustrator 24.3.0, SVG Export Plug-In . SVG Version: 6.00 Build 0)  -->
<svg version="1.1" id="Layer_2_1_" xmlns="http://www.w3.org/2000/svg" xmlns:xlink="http://www.w3.org/1999/xlink" x="0px" y="0px"
	 viewBox="0 0 166.4 232.1" style="enable-background:new 0 0 166.4 232.1;" xml:space="preserve">
<style type="text/css">
	.st0{fill:url(#SVGID_1_);}
</style>
<linearGradient id="SVGID_1_" gradientUnits="userSpaceOnUse" x1="83.225" y1="-1.760839e-02" x2="83.225" y2="232.1842">
	<stop  offset="1.497109e-06" style="stop-color:#F26924"/>
	<stop  offset="3.796108e-02" style="stop-color:#F3762C"/>
	<stop  offset="0.1806" style="stop-color:#F5A149"/>
	<stop  offset="0.3186" style="stop-color:#F7C460"/>
	<stop  offset="0.4489" style="stop-color:#F9DC70"/>
	<stop  offset="0.5684" style="stop-color:#FAEB7A"/>
	<stop  offset="0.667" style="stop-color:#FAF07D"/>
	<stop  offset="1" style="stop-color:#A8D1E6"/>
</linearGradient>
<path class="st0" d="M157,78.8c-3.9,4-7.6,8.2-11.8,11.9c-0.2,0.2-0.4,0.4-0.6,0.5c1.6-2.5,3.2-5,4.8-7.5c5.5-9,9.9-18.7,13.1-28.7
	c2-6.8,3.4-13.7,4-20.8c0-1.8-1.2-3.4-2.9-3.9c-1.6-0.4-3.8,0.2-4.5,1.8c-3.6,8-7.9,15.8-12.7,23.2c-1.2,1.8-2.4,3.6-3.7,5.4
	c-0.1,0.1-0.2,0.2-0.3,0.4c0.3-0.7,0.6-1.3,1-2c5-10.6,9.2-21.7,11.1-33.2c1.3-7.2,1.6-14.6,1-21.9c0-2-1.5-3.7-3.5-4
	c-2-0.3-3.8,0.9-4.4,2.9c-1.4,5.1-3,10.1-4.8,15c-0.4,1-0.7,2-1.1,3c-0.2,0.5-0.4,1-0.6,1.4c0,0,0,0.1-0.1,0.2
	c-0.1,0.2-0.3,0.7-0.3,0.7c-0.7,1.7-1.5,3.4-2.4,5s-1.8,3.1-2.7,4.6c-0.4,0.7-0.9,1.3-1.3,2c-0.2,0.3-0.4,0.6-0.7,0.9
	c-0.2,0.2-0.3,0.4-0.5,0.6c-2.2,2.8-4.7,5.4-7.3,7.9c-1.5,1.4-3,2.8-4.5,4.1l-2.3,2c-0.6,0.5-1.2,1.1-1.6,1.7
	c-0.4,0.7-0.6,1.5-0.7,2.2c-0.8,3.4-1.6,6.8-2.5,10.2c-0.4,1.6-0.9,3.1-1.4,4.7c-0.2,0.7-0.5,1.5-0.8,2.2c-0.1,0.4-0.3,0.7-0.4,1.1
	c0.7-1.1-0.1,0.2-0.2,0.5c-0.6,1.4-1.4,2.7-2.2,3.9c-0.2,0.3-0.4,0.6-0.6,0.9c0,0,0,0.1-0.1,0.1c0,0-0.1,0.1-0.1,0.1
	c-0.5,0.6-1.1,1.2-1.7,1.8c-0.3,0.3-0.6,0.6-0.9,0.9l-0.4,0.4c-0.2,0.2-0.3,0.3-0.3,0.3c-0.6,0.5-1.3,1-2,1.3
	c-0.2,0.1-1.6,1-2.2,1.2c0.1-0.1,0.2-0.2-0.3,0l-0.8,0.3c-0.5,0.2-1.1,0.4-1.6,0.5c0,0,0,0,0,0c-6.7,0.4-8.8-10.8-6.8-21
	c2-10,11.1-21.7,10.2-39c-0.6-11.7-7.3-17.2-15.7-16c-7.1,1-12.6,7.4-15,13.5c-3.2,8-1.5,21.2-0.4,24c4.4-13.3,8.3-21,12.2-24.1
	c5-4,10-2.3,8.7,7.5c-1.7,13-8.5,18.1-11.5,28.8c-3.5,12.1-1.6,11.5-3.9,20.4c-1.2,4.4-4,6.5-7.5,5.9c-0.6-0.1-1.1-0.3-1.6-0.5
	l-0.8-0.3c-0.5-0.2-0.4-0.1-0.3,0c-0.6-0.2-2-1.1-2.2-1.2c-0.7-0.4-1.4-0.8-2-1.3c0,0,0-0.1-0.3-0.3l-0.4-0.4
	c-0.3-0.3-0.6-0.6-0.9-0.9c-0.6-0.6-1.1-1.2-1.7-1.8c-0.1-0.1-0.1-0.1-0.1-0.1c0,0,0-0.1-0.1-0.1c-0.2-0.3-0.4-0.6-0.6-0.9
	c-0.8-1.3-1.6-2.6-2.2-3.9c-0.1-0.3-0.9-1.7-0.2-0.5c-0.2-0.3-0.3-0.7-0.4-1.1c-0.3-0.7-0.5-1.5-0.8-2.2c-0.5-1.5-1-3.1-1.4-4.7
	c-0.9-3.4-1.6-6.8-2.5-10.2c-0.1-0.8-0.4-1.5-0.7-2.2c-0.5-0.6-1-1.2-1.6-1.7l-2.3-2c-1.5-1.3-3-2.7-4.5-4.1c-2.6-2.5-5-5.1-7.3-7.9
	c-0.2-0.2-0.3-0.4-0.5-0.6c-0.2-0.3-0.4-0.6-0.7-0.9c-0.5-0.7-0.9-1.3-1.3-2c-1-1.5-1.9-3-2.7-4.6s-1.7-3.3-2.4-5
	c0-0.1-0.3-0.6-0.3-0.7c0-0.1-0.1-0.2-0.1-0.2c-0.2-0.5-0.4-0.9-0.6-1.4c-0.4-1-0.8-2-1.1-3C22,13,20.5,7.9,19,2.9
	C18.5,1,16.6-0.3,14.6,0c-2,0.3-3.5,2-3.5,4c-0.7,7.3-0.4,14.6,0.9,21.8c1.9,11.6,6.1,22.7,11.1,33.2c0.3,0.7,0.6,1.3,1,2
	c-0.1-0.1-0.2-0.2-0.3-0.4c-1.3-1.8-2.5-3.6-3.6-5.4c-4.8-7.4-9-15.2-12.6-23.2c-0.7-1.6-2.9-2.2-4.5-1.8c-1.7,0.5-2.9,2.1-2.9,3.9
	c0.6,7,2,14,4,20.8C7.3,65,11.7,74.6,17.2,83.6c1.5,2.6,3.2,5.1,4.8,7.5c-0.2-0.2-0.4-0.4-0.6-0.5c-4.2-3.7-7.9-7.9-11.8-11.9
	c-2.8-2.8-7.8,0-6.7,3.9c1.5,5.1,3.8,10,6.8,14.4c5.2,7.9,11.8,14.7,18.7,21.3c2,1.9,4,3.8,6,5.6c-3.7-2.2-7.3-4.4-11-6.5
	c-1.2-0.7-2.8-0.7-4,0c-1.9,1.1-2.6,3.6-1.4,5.5c2.7,5.2,6.7,9.6,10.8,13.8c3.9,3.7,7.5,7.6,11,11.8c0.1,0.2,0.3,0.3,0.4,0.5
	l0.6,0.8c0.4,0.6,0.9,1.2,1.3,1.8c0.9,1.3,1.7,2.6,2.5,4c0.9,1.5,1.7,3.1,2.5,4.7c0.2,0.5,0.4,0.9,0.6,1.3c0,0.1,0.3,0.8,0.4,1
	c0.3,0.8,0.6,1.6,0.9,2.4c1.5,4.1,2.7,8.3,3.7,12.6c0.3,1.2,0.5,2.5,0.7,3.8c0.1,0.5,0.2,1,0.2,1.6c-0.1-0.7,0.1,0.6,0.1,0.8
	c0.2,2,0.3,4,0.2,6.1c0,1-0.1,1.9-0.2,2.9c-0.1,0.2-0.1,0.5-0.1,0.7c0,0.1,0,0.3,0,0.4c0,0.1,0,0.2,0,0.2c0,0.2-0.1,0.5-0.1,0.7
	c-0.3,1.9-0.8,3.8-1.3,5.7c-1.3,4.7-3,9.2-4.6,13.8c-0.4,1.4,0,2.9,1,3.9c1.6,1.6,4.1,1.6,5.7,0c1.8-1.9,3.1-4,4.2-6.3
	c-0.1,5.2-0.2,10.4-0.2,15.7c0,0.2,0,0.5-0.1,0.7H58c0,0,0,0.1,0,0.1c0,2.2,1.8,4,4,4c2.3,0.1,3.8-1.9,4-4c0.2-2.1,0.5-4.1,0.7-6.2
	c1.5-15.7,1.2-31.5-1-47.1c-1.8-13.3-5.4-26.3-10.8-38.6c-5.8-12.8-12.7-25.2-18.9-37.8L35.2,97c-0.1-0.2-0.2-0.4-0.3-0.6
	c0,0,0,0,0,0.1c0,0,0,0,0-0.1c-0.3-0.8-0.5-1.5-0.7-2.3c-0.1-0.4-0.1-0.7-0.2-1.2c0-0.1,0-0.2,0-0.2c0-0.7,0-1.3,0-2
	c0-0.1,0-0.1,0-0.2c0,0,0,0,0,0c0.1-0.3,0.2-0.6,0.2-0.9c0-0.1,0.1-0.2,0.1-0.4c0.1-0.1,0.2-0.2,0.2-0.3c0,0,0.1-0.1,0.1-0.2
	c0.1-0.1,0.3-0.4,0.4-0.5c0.1-0.1,0.1-0.1,0.2-0.2l0.3-0.2c0,0,0,0,0,0c0,0,0,0,0,0c0.2,0,0.4-0.1,0.7-0.2c0.1,0,0.3,0,0.4,0
	l0.4,0.1c0.3,0.1,0.5,0.2,0.8,0.2c0.1,0,0.1,0,0.2,0c0.2,0.1,0.4,0.2,0.7,0.4c0.3,0.2,0.6,0.4,0.9,0.6c0.1,0.1,0.4,0.3,0.5,0.4
	c0.6,0.6,1.2,1.2,1.8,1.8c0.2,0.2,0.4,0.5,0.6,0.7l0.5,0.8c0.4,0.6,0.8,1.1,1.2,1.7c8.7,12.6,16.7,25.7,24.5,38.9
	c0.3,0.6,0.8,1.1,1.4,1.4c1.9,1.1,4.4,0.5,5.5-1.4c1.5-2.5,1-5.2,0-7.7c-1.1-2.4-2-4.9-2.7-7.5c-0.2-0.9-0.4-1.8-0.6-2.8
	c0-0.2-0.2-1.5-0.1-0.7c0-0.5-0.1-0.9-0.1-1.4c-0.1-1.2-0.2-2.4-0.2-3.6c0-0.5,0.1-1,0.1-1.5c0-0.2,0-0.3,0.1-0.5c0,0,0,0,0-0.1
	c0.2-1,0.5-2,0.8-2.9c0.1-0.2,0.2-0.4,0.2-0.7c-0.1,0.2-0.3,0.7,0,0c0.2-0.4,0.4-0.8,0.6-1.2c0.2-0.4,0.5-0.8,0.7-1.2
	c0.1-0.1,0.6-0.8,0.5-0.8c0.5-0.6,1.1-1.2,1.7-1.8c0.1-0.1,0.6-0.5,0.7-0.6c0.3-0.2,0.6-0.4,0.9-0.6c0.4-0.2,0.9-0.5,1.1-0.7
	c0.2-0.1,0.9-0.4,0.8-0.4c0.7-0.3,1.4-0.5,2.2-0.6l0.6-0.1c-0.9,0.1-0.3,0-0.1,0c0.3,0,0.5,0,0.8,0c0.3,0,0.5,0,0.8,0
	c0.2,0,0.8,0.1-0.1,0l0.6,0.1c0.7,0.2,1.4,0.4,2.2,0.6c-0.1,0,0.6,0.3,0.8,0.4c0.2,0.1,0.8,0.4,1.1,0.7c0.3,0.2,0.6,0.4,0.9,0.6
	c0.1,0.1,0.5,0.4,0.7,0.6c0.6,0.6,1.1,1.2,1.7,1.8c-0.1-0.1,0.4,0.6,0.5,0.8c0.2,0.4,0.5,0.8,0.7,1.2c0.2,0.4,0.4,0.8,0.6,1.2
	c0.3,0.7,0.1,0.2,0,0l0.2,0.7c0.3,1,0.6,1.9,0.8,2.9c0,0,0,0,0,0.1c0,0.2,0,0.3,0.1,0.5c0,0.5,0.1,1,0.1,1.5c0,1.2,0,2.4-0.2,3.6
	c0,0.5-0.1,0.9-0.1,1.4c0.1-0.8-0.1,0.5-0.1,0.7c-0.2,0.9-0.4,1.8-0.6,2.8c-0.8,2.6-1.7,5.1-2.7,7.5c-1,2.5-1.5,5.2,0,7.7
	c1.1,1.9,3.6,2.6,5.5,1.4c0.6-0.3,1.1-0.8,1.4-1.4c7.8-13.2,15.8-26.3,24.5-38.9c0.4-0.6,0.8-1.1,1.2-1.7l0.5-0.8
	c0.2-0.3,0.4-0.5,0.6-0.7c0.5-0.6,1.1-1.3,1.8-1.8c0.1-0.1,0.4-0.3,0.5-0.4c0.3-0.2,0.6-0.4,0.9-0.6c0.4-0.2,0.5-0.3,0.7-0.4
	c0,0,0.1,0,0.2,0c0.3-0.1,0.5-0.2,0.8-0.2l0.4-0.1c0.1,0,0.3,0,0.4,0c0.2,0.1,0.4,0.1,0.6,0.2c0,0,0.1,0,0.1,0l0.3,0.2
	c0,0,0.1,0.1,0.2,0.2c0.1,0.1,0.4,0.4,0.4,0.5c0.1,0.1,0.1,0.2,0.1,0.2c0,0.1,0.1,0.2,0.2,0.3c0,0.1,0.1,0.2,0.1,0.3
	c0.1,0.3,0.2,0.6,0.2,0.9c0,0.1,0,0.2,0.1,0.2c0.1,0.7,0,1.3,0,2c0,0.1,0,0.2,0,0.2c-0.1,0.5-0.1,0.8-0.2,1.2
	c-0.2,0.8-0.4,1.6-0.7,2.3c0,0,0,0,0,0.1c0,0,0-0.1,0-0.1l-0.3,0.6l-0.8,1.5c-6.2,12.6-13.2,24.9-18.9,37.8
	c-5.4,12.3-9,25.3-10.8,38.6c-2.2,15.6-2.5,31.4-1,47.1c0.2,2.1,0.4,4.1,0.7,6.2c0.2,2.1,1.7,4.1,4,4c2.2,0,4-1.8,4-4c0,0,0,0,0,0
	h0.1c0-0.3-0.1-0.7-0.1-1c0-5.1-0.2-10.3-0.2-15.4c1.1,2.3,2.4,4.4,4.2,6.3c1.6,1.6,4.1,1.6,5.7,0c1-1,1.4-2.5,1-3.9
	c-1.7-4.5-3.3-9.1-4.6-13.8c-0.5-1.9-1-3.8-1.3-5.7c0-0.2-0.1-0.4-0.1-0.7c0-0.2-0.1-0.8,0-0.3c0.1,0.5,0-0.2,0-0.3s0-0.4-0.1-0.7
	c-0.1-1-0.2-1.9-0.2-2.9c-0.1-2,0-4,0.2-6.1c0-0.2,0.2-1.6,0.1-0.8c0.1-0.5,0.1-1,0.2-1.6c0.2-1.3,0.5-2.5,0.7-3.8
	c0.9-4.3,2.1-8.5,3.6-12.6c0.3-0.8,0.6-1.7,0.9-2.5c0.1-0.2,0.4-0.8,0.4-0.9c0.2-0.4,0.4-0.9,0.6-1.3c0.8-1.6,1.6-3.2,2.5-4.7
	c0.8-1.4,1.7-2.7,2.5-4c0.4-0.6,0.8-1.2,1.3-1.8l0.6-0.8c0.1-0.2,0.3-0.3,0.4-0.5c3.4-4.1,7.1-8,11-11.8c4.1-4.1,8.1-8.6,10.8-13.8
	c1.1-1.9,0.5-4.4-1.4-5.5c-1.2-0.7-2.8-0.7-4,0c-3.8,2-7.4,4.3-11,6.5c2-1.9,4-3.7,6-5.6c6.8-6.5,13.4-13.3,18.5-21.1
	c2.9-4.4,5.2-9.3,6.8-14.4C164.8,78.8,159.7,76,157,78.8z M34.2,89.6c0-0.1,0-0.2,0.1-0.3C34.3,89.5,34.2,89.7,34.2,89.6z
	 M34.9,88.3l0.3-0.2C35.1,88.2,35,88.3,34.9,88.3z M35.3,88C35.3,88,35.3,88,35.3,88L35.3,88z M35.6,87.9c0.1-0.1,0.3-0.2,0.3-0.1
	C35.9,87.8,35.8,87.8,35.6,87.9z M68.5,129.9c0-0.1,0-0.2,0-0.3c0,0,0,0,0,0.1C68.5,129.8,68.5,129.9,68.5,129.9z M98.1,130
	c0-0.1,0-0.2,0-0.3c0,0,0,0,0-0.1C98.1,129.8,98.1,129.9,98.1,130z M130.6,87.7c0.1,0,0.2,0.1,0.2,0.1
	C130.7,87.8,130.6,87.8,130.6,87.7z M131.2,88C131.2,88,131.2,88,131.2,88L131.2,88z M131.3,88.1l0.3,0.2
	C131.5,88.3,131.4,88.2,131.3,88.1z M132.2,89.3c0.1,0.1,0.1,0.2,0.1,0.3C132.3,89.7,132.3,89.5,132.2,89.3z"/>
</svg>
